<svg version="1.1" id="timeline-trajectory-arrow" xmlns="http://www.w3.org/2000/svg" xmlns:xlink="http://www.w3.org/1999/xlink" x="0px" y="0px"
	 viewBox="0 0 99.6 8.4" style="enable-background:new 0 0 99.6 8.4;" xml:space="preserve">
<style type="text/css">
	.st2{fill:none;stroke:#000000;stroke-linecap:round;stroke-linejoin:round;}
	.st3{fill:none;stroke:#000000;stroke-linecap:round;stroke-linejoin:round;stroke-dasharray:4.1184,4.1184;}
</style>
<g>
	<g>
		<g>
			<line class="st2" x1="8.4" y1="4.2" x2="10.4" y2="4.2"/>
			<line class="st3" x1="14.5" y1="4.2" x2="94.8" y2="4.2"/>
			<line class="st2" x1="96.9" y1="4.2" x2="98.9" y2="4.2"/>
			<g>
				<polygon points="96.7,6.9 96.2,6.4 98.6,4.2 96.2,2 96.7,1.5 99.6,4.2 				"/>
			</g>
		</g>
	</g>
	<path d="M8.4,4.2c0,2.3-1.9,4.2-4.2,4.2S0,6.5,0,4.2S1.9,0,4.2,0S8.4,1.9,8.4,4.2z M4.2,3.3c-0.5,0-0.9,0.4-0.9,0.9
		s0.4,0.9,0.9,0.9c0.5,0,0.9-0.4,0.9-0.9S4.7,3.3,4.2,3.3z"/>
</g>
</svg>
