<?xml version="1.0" encoding="utf-8"?>
<!-- Generator: Adobe Illustrator 18.1.1, SVG Export Plug-In . SVG Version: 6.00 Build 0)  -->
<!DOCTYPE svg PUBLIC "-//W3C//DTD SVG 1.1//EN" "http://www.w3.org/Graphics/SVG/1.1/DTD/svg11.dtd">
<svg version="1.1" id="Layer_1" xmlns="http://www.w3.org/2000/svg" xmlns:xlink="http://www.w3.org/1999/xlink" x="0px" y="0px"
	 viewBox="0 0 640 1136" enable-background="new 0 0 640 1136" xml:space="preserve">
<g>
	<line fill="none" stroke="#000000" stroke-miterlimit="10" x1="60" y1="136.5" x2="580" y2="136.5"/>
	<line fill="none" stroke="#000000" stroke-miterlimit="10" x1="60" y1="147.5" x2="580" y2="147.5"/>
	<line fill="none" stroke="#000000" stroke-miterlimit="10" x1="60" y1="158.5" x2="580" y2="158.5"/>
	<line fill="none" stroke="#000000" stroke-miterlimit="10" x1="60" y1="169.5" x2="580" y2="169.5"/>
	<line fill="none" stroke="#000000" stroke-miterlimit="10" x1="60" y1="180.5" x2="580" y2="180.5"/>
	<line fill="none" stroke="#000000" stroke-miterlimit="10" x1="60" y1="253.5" x2="580" y2="253.5"/>
	<line fill="none" stroke="#000000" stroke-miterlimit="10" x1="60" y1="264.5" x2="580" y2="264.5"/>
	<line fill="none" stroke="#000000" stroke-miterlimit="10" x1="60" y1="275.5" x2="580" y2="275.5"/>
	<line fill="none" stroke="#000000" stroke-miterlimit="10" x1="60" y1="286.5" x2="580" y2="286.5"/>
	<line fill="none" stroke="#000000" stroke-miterlimit="10" x1="60" y1="297.5" x2="580" y2="297.5"/>
	<line fill="none" stroke="#000000" stroke-miterlimit="10" x1="60" y1="370.5" x2="580" y2="370.5"/>
	<line fill="none" stroke="#000000" stroke-miterlimit="10" x1="60" y1="381.5" x2="580" y2="381.5"/>
	<line fill="none" stroke="#000000" stroke-miterlimit="10" x1="60" y1="392.5" x2="580" y2="392.5"/>
	<line fill="none" stroke="#000000" stroke-miterlimit="10" x1="60" y1="403.5" x2="580" y2="403.5"/>
	<line fill="none" stroke="#000000" stroke-miterlimit="10" x1="60" y1="414.5" x2="580" y2="414.5"/>
	<line fill="none" stroke="#000000" stroke-miterlimit="10" x1="60" y1="487.5" x2="580" y2="487.5"/>
	<line fill="none" stroke="#000000" stroke-miterlimit="10" x1="60" y1="498.5" x2="580" y2="498.5"/>
	<line fill="none" stroke="#000000" stroke-miterlimit="10" x1="60" y1="509.5" x2="580" y2="509.5"/>
	<line fill="none" stroke="#000000" stroke-miterlimit="10" x1="60" y1="520.5" x2="580" y2="520.5"/>
	<line fill="none" stroke="#000000" stroke-miterlimit="10" x1="60" y1="531.5" x2="580" y2="531.5"/>
	<line fill="none" stroke="#000000" stroke-miterlimit="10" x1="60" y1="604.5" x2="580" y2="604.5"/>
	<line fill="none" stroke="#000000" stroke-miterlimit="10" x1="60" y1="615.5" x2="580" y2="615.5"/>
	<line fill="none" stroke="#000000" stroke-miterlimit="10" x1="60" y1="626.5" x2="580" y2="626.5"/>
	<line fill="none" stroke="#000000" stroke-miterlimit="10" x1="60" y1="637.5" x2="580" y2="637.5"/>
	<line fill="none" stroke="#000000" stroke-miterlimit="10" x1="60" y1="648.5" x2="580" y2="648.5"/>
	<line fill="none" stroke="#000000" stroke-miterlimit="10" x1="60" y1="721.5" x2="580" y2="721.5"/>
	<line fill="none" stroke="#000000" stroke-miterlimit="10" x1="60" y1="732.5" x2="580" y2="732.5"/>
	<line fill="none" stroke="#000000" stroke-miterlimit="10" x1="60" y1="743.5" x2="580" y2="743.5"/>
	<line fill="none" stroke="#000000" stroke-miterlimit="10" x1="60" y1="754.5" x2="580" y2="754.5"/>
	<line fill="none" stroke="#000000" stroke-miterlimit="10" x1="60" y1="765.5" x2="580" y2="765.5"/>
	<line fill="none" stroke="#000000" stroke-miterlimit="10" x1="60" y1="838.5" x2="580" y2="838.5"/>
	<line fill="none" stroke="#000000" stroke-miterlimit="10" x1="60" y1="849.5" x2="580" y2="849.5"/>
	<line fill="none" stroke="#000000" stroke-miterlimit="10" x1="60" y1="860.5" x2="580" y2="860.5"/>
	<line fill="none" stroke="#000000" stroke-miterlimit="10" x1="60" y1="871.5" x2="580" y2="871.5"/>
	<line fill="none" stroke="#000000" stroke-miterlimit="10" x1="60" y1="882.5" x2="580" y2="882.5"/>
	<line fill="none" stroke="#000000" stroke-miterlimit="10" x1="60" y1="955.5" x2="580" y2="955.5"/>
	<line fill="none" stroke="#000000" stroke-miterlimit="10" x1="60" y1="966.5" x2="580" y2="966.5"/>
	<line fill="none" stroke="#000000" stroke-miterlimit="10" x1="60" y1="977.5" x2="580" y2="977.5"/>
	<line fill="none" stroke="#000000" stroke-miterlimit="10" x1="60" y1="988.5" x2="580" y2="988.5"/>
	<line fill="none" stroke="#000000" stroke-miterlimit="10" x1="60" y1="999.5" x2="580" y2="999.5"/>
</g>
</svg>
