<svg version="1.1" id="turntable" xmlns="http://www.w3.org/2000/svg" xmlns:xlink="http://www.w3.org/1999/xlink" x="0px" y="0px"
	 viewBox="0 0 75.5 55.7" style="enable-background:new 0 0 75.5 55.7;" xml:space="preserve">
<style type="text/css">
	.st0{fill:none;stroke:#FFFFFF;stroke-linecap:round;stroke-linejoin:round;stroke-miterlimit:10;}
	.st1{fill:none;stroke:#000000;stroke-miterlimit:10;}
</style>
<g id="vinyl">
	<circle id="turntable_plate" cx="32.8" cy="27.8" r="25.9"/>
  <circle id="turntable_vinyl_notch" fill="none" cx="32.8" cy="27.8" r="1" />
	<path id="monogram" class="st0" d="M44,20.4c0,4.1-3.3,7.4-7.4,7.4H21.7V13h14.8C40.6,13,44,16.3,44,20.4z M36.6,27.8H21.7v14.8h14.8
		c4.1,0,7.4-3.3,7.4-7.4S40.6,27.8,36.6,27.8z M21.7,13L44,42.7 M21.7,27.8h11.1 M21.7,13v29.6 M24.9,33.6l1.8,4.1l1.8-4.1l1.8,4.1
		l1.8-4.1"/>
</g>
<path id="turntable_arm" d="M70.2,50.7l-2.4-1.1v-5.4c0-0.2-0.1-0.5-0.2-0.7l-0.9-1.1V15.5c1.9-0.5,3.3-2.1,3.3-4.1c0-2-1.4-3.7-3.3-4.1V5.1h2.8
	c0.2-0.2,0.3-0.3,0.5-0.5V2.4c0-0.3-0.2-0.5-0.5-0.5h-7.7c-0.3,0-0.5,0.2-0.5,0.5v2.2c0.2,0.2,0.3,0.3,0.5,0.5h2.8v2.1
	c-1.9,0.5-3.3,2.1-3.3,4.1c0,2,1.4,3.7,3.3,4.1v26.9l-0.9,1.1c-0.2,0.2-0.2,0.4-0.2,0.7v8.5c0,0.6,0.5,1.1,1.1,1.1h2
	c0.6,0,1.1-0.5,1.1-1.1v-2.1l2.1,0.9c0.2,0.1,0.5,0,0.6-0.2C70.5,51.1,70.4,50.8,70.2,50.7z M65.6,10.4c0.5,0,0.9,0.4,0.9,0.9
	s-0.4,0.9-0.9,0.9s-0.9-0.4-0.9-0.9S65.1,10.4,65.6,10.4z"/>
<g id="turntable_drive">
  <path id="turntable_motor" d="M13.4,5.1c0,1.8-1.5,3.2-3.2,3.2S6.9,6.9,6.9,5.1s1.5-3.2,3.2-3.2S13.4,3.3,13.4,5.1z M10.1,4.2c-0.5,0-0.9,0.4-0.9,0.9
    s0.4,0.9,0.9,0.9c0.5,0,0.9-0.4,0.9-0.9S10.7,4.2,10.1,4.2z"/>
  <path id="turntable_belt" class="st1" d="M5.5,5.1c0-2.6,2.1-4.6,4.6-4.6l22.7,0c15.1,0,27.3,12.2,27.3,27.3S47.9,55.2,32.8,55.2S5.5,42.9,5.5,27.8V5.1z
    "/>
</g>
</svg>
