<?xml version="1.0" encoding="utf-8"?>
<!-- Generator: Adobe Illustrator 19.1.0, SVG Export Plug-In . SVG Version: 6.00 Build 0)  -->
<!DOCTYPE svg PUBLIC "-//W3C//DTD SVG 1.1//EN" "http://www.w3.org/Graphics/SVG/1.1/DTD/svg11.dtd">
<svg version="1.1" id="Layer_1" xmlns="http://www.w3.org/2000/svg" xmlns:xlink="http://www.w3.org/1999/xlink" x="0px" y="0px"
	 viewBox="0 0 96 48" style="enable-background:new 0 0 96 48;" xml:space="preserve">
<g>
	<line class="glyph_thin_stroke" x1="12" y1="39" x2="84" y2="15"/>
	<g>
		<path class="glyph_fill" d="M36.9,24.3c0.8-0.3,1.2-0.1,1.4,0.5c0.4,1.1-0.4,2.4-1.9,2.9c-1,0.3-1.9,0.2-2-0.4c-0.1-0.4,0.1-0.9,0.6-1.2
			c-0.4,0-0.7-0.1-0.8-0.5c-0.2-0.6,0.1-1.3,0.7-1.7c-0.3-0.1-0.5-0.4-0.7-0.7c-0.3-0.9,0.4-2,1.5-2.3c0.5-0.2,1-0.2,1.4,0.1
			c0.1-0.5,0.3-0.7,0.5-0.8c0.2-0.1,0.4,0,0.5,0.2c0.1,0.3,0,0.6-0.3,0.6c-0.1,0-0.2,0-0.3-0.1c0,0-0.1,0-0.1,0
			c-0.1,0-0.1,0.1-0.1,0.2c0.1,0.1,0.1,0.2,0.2,0.4c0.3,0.9-0.3,2-1.4,2.4c-0.3,0.1-0.6,0.1-0.9,0.1c-0.4,0.3-0.6,0.7-0.6,0.9
			c0.1,0.2,0.2,0.2,0.5,0.1l0.1,0l0.8-0.3L36.9,24.3z M35.2,26.1C35,26.5,34.9,26.8,35,27c0.2,0.5,0.7,0.6,1.4,0.4
			c1-0.3,1.7-1.2,1.5-1.8c-0.1-0.2-0.2-0.3-0.5-0.2L35.2,26.1z M35.3,22.9c0,0.2,0,0.3,0.1,0.4c0.1,0.3,0.3,0.4,0.6,0.3
			c0.4-0.1,0.6-0.4,0.5-1l-0.1-0.8c0-0.2,0-0.3-0.1-0.4c-0.1-0.3-0.3-0.4-0.6-0.3c-0.2,0.1-0.4,0.2-0.4,0.4c-0.1,0.2-0.1,0.3,0,0.7
			L35.3,22.9z"/>
		<path class="glyph_fill" d="M40.7,16.6l-0.6,0.2l0-0.3l0.3-0.1c0.8-0.3,1.1-0.4,1.5-0.6l0.7,6.6l0.6-0.2l0,0.3l-2.4,0.8l0-0.3l0.6-0.2L40.7,16.6z"/>
		<path class="glyph_fill" d="M45.9,17.8L45.3,18l0-0.3l0.3-0.1c0.8-0.3,1.1-0.4,1.5-0.6l0.4,3.9l0.6-0.2l0,0.3l-2.4,0.8l0-0.3l0.6-0.2L45.9,17.8z
			 M46.8,15.3c0.1,0.4-0.1,0.9-0.5,1c-0.3,0.1-0.6,0-0.7-0.3c-0.1-0.4,0.1-0.9,0.5-1C46.4,14.8,46.7,15,46.8,15.3z"/>
		<path class="glyph_fill" d="M53.2,16.3l-0.2,0.1l0-0.1c-0.1-0.4-0.7-0.6-1.2-0.5c-0.4,0.1-0.7,0.5-0.6,0.8c0.1,0.2,0.2,0.3,0.6,0.3
			c1.3-0.1,1.6,0,1.8,0.6c0.1,0.3,0.1,0.7-0.1,1.1c-0.2,0.5-0.6,0.9-1.1,1.1c-0.3,0.1-0.7,0.1-1,0c-0.1,0-0.1,0-0.2,0
			c-0.1,0-0.1,0.1-0.1,0.3l-0.2,0.1l-0.2-1.5l0.2-0.1c0,0.1,0,0.2,0.1,0.2c0.2,0.5,0.8,0.8,1.4,0.6c0.5-0.2,0.8-0.6,0.7-1
			c0-0.1-0.1-0.2-0.3-0.3c-0.2,0-0.2-0.1-0.7,0c-0.6,0-0.9,0-1.1-0.1c-0.2-0.1-0.3-0.3-0.4-0.5c-0.2-0.7,0.3-1.7,1-1.9
			c0.3-0.1,0.5-0.1,0.8-0.1c0.1,0,0.2,0,0.2,0c0.1,0,0.1-0.1,0.1-0.3l0.2-0.1L53.2,16.3z"/>
		<path class="glyph_fill" d="M59,14.3l-0.2,0.1l0-0.1c-0.1-0.4-0.7-0.6-1.2-0.5c-0.4,0.1-0.7,0.5-0.6,0.8c0.1,0.2,0.2,0.3,0.6,0.3
			c1.3-0.1,1.6,0,1.8,0.6c0.1,0.3,0.1,0.7-0.1,1.1c-0.2,0.5-0.6,0.9-1.1,1.1c-0.3,0.1-0.7,0.1-1,0c-0.1,0-0.1,0-0.2,0
			c-0.1,0-0.1,0.1-0.1,0.3l-0.2,0.1l-0.2-1.5l0.2-0.1c0,0.1,0,0.2,0.1,0.2c0.2,0.6,0.8,0.8,1.4,0.6c0.5-0.2,0.8-0.6,0.7-1
			c0-0.1-0.1-0.2-0.3-0.3c-0.2,0-0.2-0.1-0.7,0c-0.6,0-0.9,0-1.1-0.1c-0.2-0.1-0.3-0.3-0.4-0.5c-0.2-0.7,0.3-1.7,1-1.9
			c0.3-0.1,0.5-0.1,0.8-0.1c0.1,0,0.2,0,0.2,0c0.1,0,0.1-0.1,0.1-0.3l0.2-0.1L59,14.3z"/>
		<path class="glyph_fill" d="M64.1,14.7c0.2,0.5-0.1,1-0.6,1.2c-0.3,0.1-0.7-0.1-0.8-0.4c-0.2-0.5,0.1-1,0.6-1.2C63.7,14.2,64,14.4,64.1,14.7z"/>
	</g>
</g>
</svg>
