<?xml version="1.0" encoding="utf-8"?>
<!-- Generator: Adobe Illustrator 19.1.0, SVG Export Plug-In . SVG Version: 6.00 Build 0)  -->
<!DOCTYPE svg PUBLIC "-//W3C//DTD SVG 1.1//EN" "http://www.w3.org/Graphics/SVG/1.1/DTD/svg11.dtd">
<svg version="1.1" id="Layer_1" xmlns="http://www.w3.org/2000/svg" xmlns:xlink="http://www.w3.org/1999/xlink" x="0px" y="0px"
	 viewBox="0 0 96 48" style="enable-background:new 0 0 96 48;" xml:space="preserve">
<g>
	<path class="glyph_fill" d="M12,30c0,0,0.8-0.9,2.5-2.3c0.8-0.7,1.9-1.5,3.1-2.3c0.6-0.4,1.3-0.8,2-1.3c0.7-0.4,1.5-0.9,2.3-1.3
		c0.4-0.2,0.8-0.4,1.3-0.6c0.4-0.2,0.9-0.4,1.3-0.6c0.5-0.2,0.9-0.4,1.4-0.6c0.5-0.2,1-0.4,1.5-0.5c0.5-0.2,1-0.4,1.5-0.6
		c0.5-0.2,1-0.3,1.6-0.5c0.5-0.2,1.1-0.3,1.6-0.5c0.6-0.1,1.1-0.3,1.7-0.4c0.6-0.1,1.1-0.3,1.7-0.4c0.6-0.1,1.2-0.2,1.7-0.3
		c1.2-0.2,2.3-0.4,3.6-0.5c1.2-0.1,2.4-0.3,3.6-0.3c1.2,0,2.5-0.1,3.7-0.1c1.2,0,2.4,0.1,3.6,0.1c1.2,0,2.4,0.2,3.6,0.3
		c1.2,0.1,2.4,0.3,3.6,0.5c0.6,0.1,1.2,0.2,1.7,0.3c0.6,0.1,1.1,0.3,1.7,0.4c0.6,0.1,1.1,0.3,1.7,0.4c0.5,0.2,1.1,0.3,1.6,0.5
		c0.5,0.2,1.1,0.3,1.6,0.5c0.5,0.2,1,0.4,1.5,0.6c0.5,0.2,1,0.4,1.5,0.5c0.5,0.2,0.9,0.4,1.4,0.6c0.5,0.2,0.9,0.4,1.3,0.6
		c0.4,0.2,0.8,0.4,1.3,0.6c0.8,0.4,1.6,0.8,2.3,1.3c0.7,0.4,1.4,0.8,2,1.3c1.2,0.8,2.3,1.6,3.1,2.3C83.2,29.1,84,30,84,30
		s-0.9-0.8-2.7-2c-0.9-0.6-2-1.3-3.3-1.9c-0.6-0.3-1.3-0.7-2.1-1.1c-0.7-0.4-1.5-0.7-2.3-1.1c-0.4-0.2-0.8-0.4-1.3-0.5
		c-0.4-0.2-0.9-0.3-1.3-0.5c-0.5-0.2-0.9-0.3-1.4-0.5c-0.5-0.2-1-0.3-1.4-0.5c-0.5-0.2-1-0.3-1.5-0.5c-0.5-0.1-1-0.3-1.6-0.4
		c-0.5-0.1-1-0.3-1.6-0.4c-0.5-0.1-1.1-0.2-1.6-0.3c-0.5-0.1-1.1-0.2-1.7-0.3c-0.6-0.1-1.1-0.2-1.7-0.3c-1.1-0.2-2.3-0.4-3.5-0.4
		c-1.2-0.1-2.3-0.3-3.5-0.3c-1.2,0-2.4-0.1-3.6-0.1c-1.2,0-2.4,0.1-3.5,0.1c-1.2,0-2.4,0.2-3.5,0.3c-1.2,0.1-2.3,0.3-3.5,0.4
		c-0.6,0.1-1.1,0.1-1.7,0.3c-0.6,0.1-1.1,0.2-1.7,0.3c-0.5,0.1-1.1,0.2-1.6,0.3c-0.5,0.1-1.1,0.3-1.6,0.4c-0.5,0.1-1,0.3-1.6,0.4
		c-0.5,0.2-1,0.3-1.5,0.5c-0.5,0.2-1,0.3-1.4,0.5c-0.5,0.2-0.9,0.3-1.4,0.5c-0.5,0.2-0.9,0.3-1.3,0.5c-0.4,0.2-0.9,0.4-1.3,0.5
		c-0.8,0.3-1.6,0.7-2.3,1.1c-0.7,0.3-1.4,0.7-2.1,1.1c-1.3,0.7-2.4,1.4-3.3,1.9C12.9,29.2,12,30,12,30z"/>
</g>
</svg>
