<?xml version="1.0" encoding="utf-8"?>
<!-- Generator: Adobe Illustrator 19.1.0, SVG Export Plug-In . SVG Version: 6.00 Build 0)  -->
<!DOCTYPE svg PUBLIC "-//W3C//DTD SVG 1.1//EN" "http://www.w3.org/Graphics/SVG/1.1/DTD/svg11.dtd">
<svg version="1.1" id="Layer_1" xmlns="http://www.w3.org/2000/svg" xmlns:xlink="http://www.w3.org/1999/xlink" x="0px" y="0px"
	 viewBox="0 0 96 48" style="enable-background:new 0 0 96 48;" xml:space="preserve">
<g>
	<polygon class="glyph_fill" points="24,20.2 24,22.2 24,24.2 24,40.2 25,40.2 25,24.2 35.8,24.2 35.8,40.2 36.8,40.2 36.8,24.2 47.5,24.2 47.5,40.2
		48.5,40.2 48.5,24.2 59.2,24.2 59.2,40.2 60.2,40.2 60.2,24.2 71,24.2 71,40.2 72,40.2 72,24.2 72,22.2 72,20.2 	"/>
	<g>
		<path class="glyph_fill" d="M46.7,12.5c0.4-0.2,0.7-0.3,1.2-0.3c1.1,0,1.9,0.6,1.9,1.6c0,1.4-1.3,2.5-3,2.5c-0.8,0-1.4-0.5-1.4-1.1c0-0.5,0.4-1,0.8-1
			c0.3,0,0.5,0.2,0.5,0.5c0,0.3-0.2,0.6-0.6,0.8c-0.1,0-0.1,0.1-0.1,0.1c0,0.1,0.4,0.3,0.7,0.3c0.8,0,1.6-1.1,1.6-2.2
			c0-0.8-0.4-1.2-0.9-1.2c-0.3,0-0.6,0.1-0.9,0.3l-0.2-0.2l0.6-2.3c0.1-0.5,0.3-0.6,0.7-0.6h2c0.2,0,0.4-0.1,0.5-0.3h0.3
			c-0.1,0.4-0.2,0.7-0.4,1c-0.2,0.4-0.4,0.5-0.8,0.4h-2.1L46.7,12.5z"/>
	</g>
</g>
</svg>
