<?xml version="1.0" encoding="utf-8"?>
<!-- Generator: Adobe Illustrator 19.1.0, SVG Export Plug-In . SVG Version: 6.00 Build 0)  -->
<!DOCTYPE svg PUBLIC "-//W3C//DTD SVG 1.1//EN" "http://www.w3.org/Graphics/SVG/1.1/DTD/svg11.dtd">
<svg version="1.1" id="Layer_1" xmlns="http://www.w3.org/2000/svg" xmlns:xlink="http://www.w3.org/1999/xlink" x="0px" y="0px"
	 viewBox="0 0 96 48" style="enable-background:new 0 0 96 48;" xml:space="preserve">
<g>
	<path class="glyph_fill" d="M35.5,19.8h-1.6l0.1-0.6h0.7c1.9,0,2.7-0.1,3.8-0.3l-0.4,1.7c1.2-1.1,2.5-1.7,3.8-1.7c1.4,0,2.4,0.7,2.6,1.9
		c1.1-1.3,2.4-1.9,3.9-1.9s2.5,0.7,2.5,1.8c0,0.3-0.1,0.8-0.2,1.4L49.5,28h1.6L51,28.6h-5.8l0.1-0.6h1.3l1.2-5.9
		c0.3-1.2,0.3-1.2,0.3-1.5c0-0.5-0.4-0.8-0.9-0.8c-0.7,0-1.5,0.4-2.1,1.1c-0.6,0.6-0.8,1.2-1.1,2.4l-1,4.6h1.3l-0.1,0.6h-5.4
		l0.1-0.6h1.3l1.2-5.9c0.2-1.1,0.2-1.1,0.2-1.3c0-0.6-0.3-1-0.9-1c-0.6,0-1.5,0.4-2,1c-0.6,0.6-0.8,1.1-1.1,2.5l-1,4.6h1.3l-0.1,0.6
		h-5.8l0.1-0.6h1.6L35.5,19.8z"/>
	<path class="glyph_fill" d="M54.6,19.8H53l0.1-0.6h0.7c2,0,2.7-0.1,3.8-0.3l-0.4,1.8c1.2-1.3,2.1-1.8,3.3-1.8c1.9,0,3.4,1.6,3.4,3.7
		c0,3.1-2.7,6.2-5.4,6.2c-1.2,0-1.9-0.5-2.6-1.9l-1.6,7.5H56l-0.1,0.6h-6.1l0.1-0.6h1.6L54.6,19.8z M56.3,25.5
		c0,1.5,0.8,2.7,1.8,2.7c0.8,0,1.5-0.6,2-2c0.5-1.3,1-3.7,1-5c0-1-0.4-1.5-1.2-1.5C58.1,19.7,56.3,22.7,56.3,25.5z"/>
</g>
</svg>
