<?xml version="1.0" encoding="utf-8"?>
<!-- Generator: Adobe Illustrator 19.1.0, SVG Export Plug-In . SVG Version: 6.00 Build 0)  -->
<!DOCTYPE svg PUBLIC "-//W3C//DTD SVG 1.1//EN" "http://www.w3.org/Graphics/SVG/1.1/DTD/svg11.dtd">
<svg version="1.1" id="Layer_1" xmlns="http://www.w3.org/2000/svg" xmlns:xlink="http://www.w3.org/1999/xlink" x="0px" y="0px"
	 viewBox="0 0 96 48" style="enable-background:new 0 0 96 48;" xml:space="preserve">
<g>
	<polygon class="glyph_fill" points="83.8,37 5.9,24 83.8,11 84.2,13 18.1,24 84.2,35 	"/>
	<g>
		<path class="glyph_fill" d="M56.1,22.9h-0.7l0.1-0.2h0.3c0.8,0,1.1,0,1.6-0.1l-0.2,0.7c0.5-0.5,1-0.7,1.6-0.7c0.6,0,1,0.3,1.1,0.8
			c0.5-0.5,1-0.8,1.6-0.8c0.6,0,1,0.3,1,0.7c0,0.1,0,0.3-0.1,0.6L62,26.3h0.7l0,0.2h-2.4l0-0.2h0.5l0.5-2.4c0.1-0.5,0.1-0.5,0.1-0.6
			c0-0.2-0.1-0.3-0.4-0.3c-0.3,0-0.6,0.2-0.9,0.4c-0.2,0.3-0.3,0.5-0.5,1l-0.4,1.9h0.5l0,0.2h-2.3l0-0.2h0.5l0.5-2.4
			c0.1-0.5,0.1-0.5,0.1-0.5c0-0.2-0.1-0.4-0.4-0.4c-0.3,0-0.6,0.2-0.8,0.4c-0.2,0.3-0.3,0.5-0.4,1l-0.4,1.9h0.5l0,0.2h-2.4l0-0.2
			h0.7L56.1,22.9z"/>
		<path class="glyph_fill" d="M69.1,24.2c0,1.3-1.3,2.5-2.7,2.5c-1.1,0-1.8-0.7-1.8-1.7c0-1.3,1.3-2.5,2.7-2.5C68.3,22.5,69.1,23.2,69.1,24.2z
			 M66.1,23.7c-0.2,0.5-0.4,1.6-0.4,2c0,0.4,0.3,0.7,0.7,0.7c0.5,0,0.9-0.3,1.1-0.9c0.2-0.5,0.4-1.7,0.4-2.1c0-0.4-0.3-0.7-0.7-0.7
			C66.6,22.8,66.3,23.1,66.1,23.7z"/>
		<path class="glyph_fill" d="M72.2,20.2h-0.7l0.1-0.2h0.3c0.8,0,1.1,0,1.6-0.1l-1.4,6.5h0.7l-0.1,0.2h-2.5l0-0.2h0.7L72.2,20.2z"/>
		<path class="glyph_fill" d="M74.8,22.9l0-0.2c0.7-0.3,1.5-1,2-1.8H77l-0.4,1.7h0.8l-0.1,0.2h-0.8L76,25.7c0,0.1,0,0.2,0,0.2c0,0.2,0.1,0.3,0.2,0.3
			c0.3,0,0.4-0.2,0.6-0.6l0.3,0c-0.1,0.3-0.2,0.5-0.4,0.6c-0.3,0.3-0.7,0.5-1.2,0.5c-0.5,0-0.8-0.2-0.8-0.6c0-0.1,0-0.2,0-0.3
			l0.6-2.8H74.8z"/>
		<path class="glyph_fill" d="M83.4,24.2c0,1.3-1.3,2.5-2.7,2.5c-1.1,0-1.8-0.7-1.8-1.7c0-1.3,1.3-2.5,2.7-2.5C82.7,22.5,83.4,23.2,83.4,24.2z
			 M80.4,23.7c-0.2,0.5-0.4,1.6-0.4,2c0,0.4,0.3,0.7,0.7,0.7c0.5,0,0.9-0.3,1.1-0.9c0.2-0.5,0.4-1.7,0.4-2.1c0-0.4-0.3-0.7-0.7-0.7
			C81,22.8,80.6,23.1,80.4,23.7z"/>
	</g>
</g>
</svg>
