<?xml version="1.0" encoding="utf-8"?>
<!-- Generator: Adobe Illustrator 19.1.0, SVG Export Plug-In . SVG Version: 6.00 Build 0)  -->
<!DOCTYPE svg PUBLIC "-//W3C//DTD SVG 1.1//EN" "http://www.w3.org/Graphics/SVG/1.1/DTD/svg11.dtd">
<svg version="1.1" id="Layer_1" xmlns="http://www.w3.org/2000/svg" xmlns:xlink="http://www.w3.org/1999/xlink" x="0px" y="0px"
	 viewBox="0 0 96 48" style="enable-background:new 0 0 96 48;" xml:space="preserve">
<path class="glyph_fill" d="M45.8,36h-4V12h4V36z M40.2,12h-2v24h2V12z M57.8,31.7c0-3.7-3-6.7-6.7-6.7v2c2.6,0,4.7,2.1,4.7,4.7c0,1.8-1.5,3.3-3.3,3.3
	c-1.2,0-2.2-1-2.2-2.2c0-0.8,0.6-1.4,1.4-1.4v-2c-1.9,0-3.4,1.5-3.4,3.4c0,2.3,1.9,4.2,4.2,4.2C55.4,37,57.8,34.6,57.8,31.7z
	 M57.8,16.3c0-2.9-2.4-5.3-5.3-5.3c-2.3,0-4.2,1.9-4.2,4.2c0,1.9,1.5,3.4,3.4,3.4v-2c-0.8,0-1.4-0.6-1.4-1.4c0-1.2,1-2.2,2.2-2.2
	c1.8,0,3.3,1.5,3.3,3.3c0,2.6-2.1,4.7-4.7,4.7v2C54.7,23,57.8,20,57.8,16.3z M48.7,24c1.2-0.9,2-2.4,2-4h-2c0,1.7-1.3,3-3,3v2
	c1.7,0,3,1.3,3,3h2C50.8,26.4,50,24.9,48.7,24z"/>
</svg>
