<?xml version="1.0" encoding="utf-8"?>
<!-- Generator: Adobe Illustrator 19.1.0, SVG Export Plug-In . SVG Version: 6.00 Build 0)  -->
<!DOCTYPE svg PUBLIC "-//W3C//DTD SVG 1.1//EN" "http://www.w3.org/Graphics/SVG/1.1/DTD/svg11.dtd">
<svg version="1.1" id="Layer_1" xmlns="http://www.w3.org/2000/svg" xmlns:xlink="http://www.w3.org/1999/xlink" x="0px" y="0px"
	 viewBox="0 0 96 48" style="enable-background:new 0 0 96 48;" xml:space="preserve">
<g>
	<g>
		<path class="glyph_fill" d="M58.7,28.7c0,0,0-0.1-0.1-0.4c-0.1-0.2-0.1-0.6-0.2-1c-0.1-0.2-0.1-0.5-0.2-0.7c-0.1-0.3-0.2-0.5-0.3-0.8
			c-0.2-0.6-0.6-1.2-1-1.8c-0.4-0.6-0.9-1.3-1.5-1.8c-0.6-0.6-1.3-1.1-2.1-1.6c-0.8-0.5-1.6-0.8-2.5-1.1c-0.9-0.3-1.9-0.4-2.8-0.4
			c-1.1,0-1.9,0.1-2.9,0.4c-0.9,0.3-1.8,0.6-2.5,1.1c-0.8,0.5-1.5,1-2.1,1.6c-0.6,0.6-1.1,1.2-1.5,1.8c-0.4,0.6-0.7,1.2-1,1.8
			c-0.1,0.3-0.2,0.6-0.3,0.8c-0.1,0.3-0.1,0.5-0.2,0.7c-0.1,0.4-0.2,0.8-0.2,1c0,0.2-0.1,0.4-0.1,0.4s0-0.1,0-0.4
			c0-0.2-0.1-0.6-0.1-1.1c0-0.2,0-0.5,0-0.8c0-0.3,0.1-0.6,0.1-0.9c0.1-0.7,0.3-1.4,0.7-2.1c0.3-0.7,0.8-1.6,1.4-2.3
			c0.6-0.8,1.3-1.5,2.2-2.1c0.9-0.6,1.9-1.1,2.9-1.5c1-0.3,2.3-0.5,3.3-0.5c1.2,0,2.3,0.2,3.4,0.5c1.1,0.3,2.1,0.9,2.9,1.5
			c0.9,0.6,1.6,1.3,2.2,2.1c0.6,0.7,1.1,1.5,1.4,2.3c0.3,0.8,0.5,1.5,0.7,2.1c0,0.3,0.1,0.6,0.1,0.9c0,0.3,0,0.6,0,0.8
			c0,0.5,0,0.8-0.1,1.1C58.7,28.5,58.7,28.7,58.7,28.7z"/>
	</g>
	<circle class="glyph_thin_stroke_fill" cx="48" cy="28.7" r="1.3"/>
</g>
</svg>
