<?xml version="1.0" encoding="utf-8"?>
<!-- Generator: Adobe Illustrator 19.1.0, SVG Export Plug-In . SVG Version: 6.00 Build 0)  -->
<!DOCTYPE svg PUBLIC "-//W3C//DTD SVG 1.1//EN" "http://www.w3.org/Graphics/SVG/1.1/DTD/svg11.dtd">
<svg version="1.1" id="Layer_1" xmlns="http://www.w3.org/2000/svg" xmlns:xlink="http://www.w3.org/1999/xlink" x="0px" y="0px"
	 viewBox="0 0 96 48" style="enable-background:new 0 0 96 48;" xml:space="preserve">
<style type="text/css">
	.st0{fill:#FFFFFF;stroke:#000000;stroke-width:0.1;stroke-miterlimit:10;}
	.st1{fill:none;stroke:#000000;stroke-width:2;stroke-miterlimit:10;}
	.st2{stroke:#000000;stroke-width:4;stroke-miterlimit:10;}
	.st3{fill:none;stroke:#000000;stroke-width:4;stroke-miterlimit:10;}
</style>
<path class="glyph_fill" d="M75,26h-7.3l-1.8-5.3l-1.9,0.6l1.5,4.6h-3.9l-1.8-5.3l-1.9,0.6l1.5,4.6h-3.9l-1.8-5.3l-1.9,0.6l1.5,4.6H30.4
	c1.2-1.4,1.9-3.5,1.6-5.6c-0.4-3.8-3.4-6.7-6.7-6.3c-1.6,0.2-3.1,1.1-4.1,2.6c-1,1.4-1.4,3.2-1.2,5c0.2,1.8,1,3.5,2.2,4.7
	c1.1,1.1,2.5,1.7,4,1.7c0.1,0,0.3,0,0.4,0v0h27.6l1.8,5.4l1.9-0.6L56.4,28h3.9l1.8,5.4l1.9-0.6L62.4,28h3.9l1.8,5.4l1.9-0.6L68.4,28
	H75V26z"/>
</svg>
