<?xml version="1.0" encoding="utf-8"?>
<!-- Generator: Adobe Illustrator 19.1.0, SVG Export Plug-In . SVG Version: 6.00 Build 0)  -->
<!DOCTYPE svg PUBLIC "-//W3C//DTD SVG 1.1//EN" "http://www.w3.org/Graphics/SVG/1.1/DTD/svg11.dtd">
<svg version="1.1" id="Layer_1" xmlns="http://www.w3.org/2000/svg" xmlns:xlink="http://www.w3.org/1999/xlink" x="0px" y="0px"
	 viewBox="0 0 96 48" style="enable-background:new 0 0 96 48;" xml:space="preserve">
<path class="glyph_fill" d="M47.5,16.9c-1.9,0-3.6,1-4.5,2.5c-0.5,0.7-0.8,1.5-0.8,2.4c0,0.1,0,0.1,0,0.2c0,0.1,0,0.1,0,0.2h0c0.2,2,1.9,3.6,4,3.6
	c2.2,0,4-1.8,4-4c0-1-0.4-1.9-1-2.6c1.6,0.7,2.7,2.3,2.7,4.1c0,3.2-2.6,5.8-5.8,5.8v2c4.3,0,7.8-3.5,7.8-7.8
	C53.9,19.8,51,16.9,47.5,16.9z"/>
</svg>
